<svg xmlns="http://www.w3.org/2000/svg" viewBox="0 0 1600 1200" width="1600" height="1200" role="img"><defs><linearGradient id="gg5lqi3" x1="0" y1="0" x2="0" y2="1"><stop offset="0" stop-color="#f7f0e5"/><stop offset="1" stop-color="#f1e5d6"/></linearGradient></defs><rect x="0" y="0" width="1600" height="1200" rx="0" fill="url(#gg5lqi3)"/><circle cx="244.98" cy="298.18" r="202" fill="#f4ebde" opacity="0.0"/><rect x="96" y="130.05" width="1408" height="831.95" rx="0" fill="#ded0b8" opacity="0.42"/><line x1="96" y1="306.82" x2="1504" y2="306.82" stroke="#412f22" stroke-width="2" stroke-opacity="0.12" stroke-linecap="round"/><rect x="0" y="962" width="1600" height="238" rx="0" fill="#e5d4c2"/><line x1="0" y1="962" x2="1600" y2="962" stroke="#412f22" stroke-width="2" stroke-opacity="0.26" stroke-linecap="round"/><ellipse cx="800" cy="980" rx="620" ry="22" fill="#412f22" opacity="0.10"/><rect x="536.66" y="246.27" width="49.41" height="715.73" rx="7.41" fill="#5c3e28"/><rect x="1068.51" y="246.27" width="49.41" height="715.73" rx="7.41" fill="#5c3e28"/><rect x="516.89" y="246.27" width="620.79" height="44.47" rx="7.41" fill="#5c3e28"/><rect x="586.07" y="290.74" width="482.45" height="671.26" rx="0" fill="#ded0b8"/><line x1="586.07" y1="389.42" x2="1068.51" y2="389.42" stroke="#a77d5a" stroke-width="3" stroke-opacity="0.42" stroke-linecap="round"/><line x1="586.07" y1="532.56" x2="1068.51" y2="532.56" stroke="#a77d5a" stroke-width="3" stroke-opacity="0.42" stroke-linecap="round"/><line x1="586.07" y1="675.71" x2="1068.51" y2="675.71" stroke="#a77d5a" stroke-width="3" stroke-opacity="0.42" stroke-linecap="round"/><line x1="586.07" y1="818.85" x2="1068.51" y2="818.85" stroke="#a77d5a" stroke-width="3" stroke-opacity="0.42" stroke-linecap="round"/><rect x="368.78" y="865.78" width="74" height="96.95" rx="8" fill="#5c3e28"/><rect x="531.53" y="881.13" width="62" height="68.45" rx="8" fill="#a77d5a"/><circle cx="409.63" cy="804.65" r="7.51" fill="#a77d5a"/><circle cx="382.82" cy="780.11" r="12.67" fill="#dcae86"/><circle cx="392.83" cy="828.21" r="13.39" fill="#dcae86"/><circle cx="428.77" cy="783.44" r="6.73" fill="#d19765"/><circle cx="387.01" cy="780.19" r="7.59" fill="#ded0b8"/><circle cx="391.54" cy="780.76" r="8.36" fill="#d19765"/><circle cx="380.61" cy="789.81" r="15.58" fill="#ded0b8"/><circle cx="417.38" cy="770.77" r="8.94" fill="#a77d5a"/><circle cx="409.42" cy="796.7" r="8.56" fill="#dcae86"/><circle cx="339.84" cy="807.92" r="12.28" fill="#a77d5a"/><circle cx="411.32" cy="819.26" r="13.95" fill="#ded0b8"/><circle cx="341.01" cy="784.32" r="6.2" fill="#dcae86"/><circle cx="414.18" cy="793.45" r="13.79" fill="#ded0b8"/><circle cx="426.99" cy="774.22" r="7.76" fill="#a77d5a"/><line x1="392.03" y1="794" x2="390.31" y2="730.66" stroke="#5c3e28" stroke-width="2.11" stroke-opacity="0.55" stroke-linecap="round"/><line x1="392.03" y1="794" x2="458.53" y2="761.02" stroke="#5c3e28" stroke-width="2.11" stroke-opacity="0.55" stroke-linecap="round"/><line x1="392.03" y1="794" x2="455.08" y2="756.81" stroke="#5c3e28" stroke-width="2.11" stroke-opacity="0.55" stroke-linecap="round"/><line x1="392.03" y1="794" x2="414.6" y2="733.36" stroke="#5c3e28" stroke-width="2.11" stroke-opacity="0.55" stroke-linecap="round"/><line x1="392.03" y1="794" x2="461.82" y2="765.88" stroke="#5c3e28" stroke-width="2.11" stroke-opacity="0.55" stroke-linecap="round"/><line x1="392.03" y1="794" x2="423.53" y2="736.05" stroke="#5c3e28" stroke-width="2.11" stroke-opacity="0.55" stroke-linecap="round"/><line x1="392.03" y1="794" x2="367.46" y2="733.87" stroke="#5c3e28" stroke-width="2.11" stroke-opacity="0.55" stroke-linecap="round"/><circle cx="651.82" cy="380.56" r="8.56" fill="#dcae86"/><circle cx="621.88" cy="341.99" r="19.82" fill="#dcae86"/><circle cx="674.83" cy="294.54" r="21.15" fill="#ded0b8"/><circle cx="704.9" cy="331.48" r="9.65" fill="#ded0b8"/><circle cx="620.7" cy="340.74" r="20.34" fill="#d19765"/><circle cx="647.1" cy="302.66" r="13.57" fill="#a77d5a"/><circle cx="696.57" cy="352.87" r="18.46" fill="#a77d5a"/><circle cx="686.41" cy="364.43" r="8.79" fill="#a77d5a"/><circle cx="685.09" cy="370.38" r="12.09" fill="#d19765"/><circle cx="688.71" cy="333.15" r="17.39" fill="#a77d5a"/><circle cx="667.94" cy="341.94" r="21.02" fill="#d19765"/><circle cx="667.94" cy="356.8" r="14.28" fill="#dcae86"/><circle cx="629.18" cy="306.47" r="15.24" fill="#dcae86"/><circle cx="630.1" cy="352.81" r="16.74" fill="#dcae86"/><line x1="652.91" y1="346.47" x2="747.56" y2="316.7" stroke="#5c3e28" stroke-width="2.75" stroke-opacity="0.55" stroke-linecap="round"/><line x1="652.91" y1="346.47" x2="557.91" y2="317.44" stroke="#5c3e28" stroke-width="2.75" stroke-opacity="0.55" stroke-linecap="round"/><line x1="652.91" y1="346.47" x2="714.11" y2="280.62" stroke="#5c3e28" stroke-width="2.75" stroke-opacity="0.55" stroke-linecap="round"/><line x1="652.91" y1="346.47" x2="680.26" y2="266.97" stroke="#5c3e28" stroke-width="2.75" stroke-opacity="0.55" stroke-linecap="round"/><line x1="652.91" y1="346.47" x2="617.37" y2="269.14" stroke="#5c3e28" stroke-width="2.75" stroke-opacity="0.55" stroke-linecap="round"/><line x1="652.91" y1="346.47" x2="725" y2="288.37" stroke="#5c3e28" stroke-width="2.75" stroke-opacity="0.55" stroke-linecap="round"/><line x1="652.91" y1="346.47" x2="582.63" y2="286.92" stroke="#5c3e28" stroke-width="2.75" stroke-opacity="0.55" stroke-linecap="round"/><circle cx="1070.95" cy="920.62" r="6.66" fill="#dcae86"/><circle cx="1078.57" cy="927.85" r="8.74" fill="#ded0b8"/><circle cx="1041.52" cy="914.33" r="10.47" fill="#dcae86"/><circle cx="1076.34" cy="892.91" r="4.46" fill="#dcae86"/><circle cx="1099.27" cy="915.38" r="4.45" fill="#a77d5a"/><circle cx="1071.44" cy="910.38" r="7" fill="#d19765"/><circle cx="1047.38" cy="926.37" r="11.4" fill="#d19765"/><circle cx="1106.64" cy="917.51" r="10.8" fill="#a77d5a"/><circle cx="1085.4" cy="923.35" r="7.6" fill="#dcae86"/><circle cx="1074.2" cy="926.04" r="11.81" fill="#dcae86"/><circle cx="1076.94" cy="901.3" r="5.08" fill="#d19765"/><circle cx="1114.39" cy="925.38" r="8.75" fill="#ded0b8"/><circle cx="1101.06" cy="907.81" r="6.98" fill="#ded0b8"/><circle cx="1093.32" cy="922.58" r="6.74" fill="#dcae86"/><circle cx="1119.5" cy="913.81" r="11.25" fill="#ded0b8"/><circle cx="1048.22" cy="914.02" r="11.09" fill="#a77d5a"/><line x1="1077.92" y1="918" x2="1050.26" y2="880" stroke="#5c3e28" stroke-width="1.47" stroke-opacity="0.55" stroke-linecap="round"/><line x1="1077.92" y1="918" x2="1045.17" y2="882.78" stroke="#5c3e28" stroke-width="1.47" stroke-opacity="0.55" stroke-linecap="round"/><line x1="1077.92" y1="918" x2="1065.86" y2="874.94" stroke="#5c3e28" stroke-width="1.47" stroke-opacity="0.55" stroke-linecap="round"/><line x1="1077.92" y1="918" x2="1060.74" y2="876.11" stroke="#5c3e28" stroke-width="1.47" stroke-opacity="0.55" stroke-linecap="round"/><line x1="1077.92" y1="918" x2="1029.02" y2="898.84" stroke="#5c3e28" stroke-width="1.47" stroke-opacity="0.55" stroke-linecap="round"/><line x1="1077.92" y1="918" x2="1072.25" y2="874.08" stroke="#5c3e28" stroke-width="1.47" stroke-opacity="0.55" stroke-linecap="round"/><line x1="1077.92" y1="918" x2="1075.04" y2="873.9" stroke="#5c3e28" stroke-width="1.47" stroke-opacity="0.55" stroke-linecap="round"/><rect x="0" y="0" width="1600" height="1200" rx="0" fill="none" stroke="#412f22" stroke-opacity="0.10" stroke-width="4"/></svg>