<svg xmlns="http://www.w3.org/2000/svg" viewBox="0 0 1600 1200" width="1600" height="1200" role="img"><defs><linearGradient id="g1s7uvnb" x1="0" y1="0" x2="0" y2="1"><stop offset="0" stop-color="#f7f0e5"/><stop offset="1" stop-color="#f1e5d6"/></linearGradient></defs><rect x="0" y="0" width="1600" height="1200" rx="0" fill="url(#g1s7uvnb)"/><circle cx="312.89" cy="293.89" r="211.06" fill="#f4ebde" opacity="0.0"/><rect x="96" y="113.08" width="1408" height="848.92" rx="0" fill="#ded0b8" opacity="0.42"/><line x1="96" y1="303.57" x2="1504" y2="303.57" stroke="#412f22" stroke-width="2" stroke-opacity="0.12" stroke-linecap="round"/><rect x="0" y="962" width="1600" height="238" rx="0" fill="#e5d4c2"/><line x1="0" y1="962" x2="1600" y2="962" stroke="#412f22" stroke-width="2" stroke-opacity="0.26" stroke-linecap="round"/><ellipse cx="800" cy="980" rx="620" ry="22" fill="#412f22" opacity="0.10"/><path d="M 162.8 1200 L 706.8 542 L 898.8 542 L 1442.8 1200 Z" fill="#ded0b8"/><line x1="162.8" y1="1200" x2="706.8" y2="542" stroke="#412f22" stroke-width="2" stroke-opacity="0.28" stroke-linecap="round"/><line x1="1442.8" y1="1200" x2="898.8" y2="542" stroke="#412f22" stroke-width="2" stroke-opacity="0.28" stroke-linecap="round"/><rect x="698.32" y="500" width="8.96" height="42" rx="4.48" fill="#a77d5a"/><rect x="898.32" y="500" width="8.96" height="42" rx="4.48" fill="#a77d5a"/><circle cx="706.87" cy="496.53" r="5.05" fill="#ded0b8"/><circle cx="696.11" cy="490.59" r="5.33" fill="#d19765"/><circle cx="694.34" cy="495.9" r="2.65" fill="#ded0b8"/><circle cx="700.47" cy="495.74" r="2.09" fill="#a77d5a"/><circle cx="702.96" cy="494.71" r="4.12" fill="#a77d5a"/><circle cx="698.74" cy="498.38" r="3.5" fill="#d19765"/><circle cx="696.86" cy="500.83" r="5.14" fill="#d19765"/><circle cx="699.49" cy="505.27" r="5.09" fill="#d19765"/><circle cx="698.38" cy="496.81" r="3.12" fill="#a77d5a"/><circle cx="694.38" cy="503.85" r="4.24" fill="#dcae86"/><circle cx="702.15" cy="493.76" r="3.08" fill="#dcae86"/><circle cx="696.49" cy="503.65" r="5.12" fill="#ded0b8"/><circle cx="698.27" cy="497.58" r="4.86" fill="#dcae86"/><circle cx="714.37" cy="505.98" r="4.55" fill="#dcae86"/><circle cx="691.72" cy="501.8" r="5.15" fill="#d19765"/><circle cx="692.54" cy="494.94" r="3.11" fill="#d19765"/><circle cx="704.88" cy="491.72" r="4.14" fill="#dcae86"/><line x1="702.8" y1="497.2" x2="683.06" y2="484.2" stroke="#5c3e28" stroke-width="0.69" stroke-opacity="0.55" stroke-linecap="round"/><line x1="702.8" y1="497.2" x2="690.13" y2="479.29" stroke="#5c3e28" stroke-width="0.69" stroke-opacity="0.55" stroke-linecap="round"/><line x1="702.8" y1="497.2" x2="713.3" y2="478.39" stroke="#5c3e28" stroke-width="0.69" stroke-opacity="0.55" stroke-linecap="round"/><line x1="702.8" y1="497.2" x2="718.93" y2="481.24" stroke="#5c3e28" stroke-width="0.69" stroke-opacity="0.55" stroke-linecap="round"/><line x1="702.8" y1="497.2" x2="681.12" y2="486.45" stroke="#5c3e28" stroke-width="0.69" stroke-opacity="0.55" stroke-linecap="round"/><line x1="702.8" y1="497.2" x2="707.91" y2="476.96" stroke="#5c3e28" stroke-width="0.69" stroke-opacity="0.55" stroke-linecap="round"/><line x1="702.8" y1="497.2" x2="716.52" y2="479.82" stroke="#5c3e28" stroke-width="0.69" stroke-opacity="0.55" stroke-linecap="round"/><circle cx="911.72" cy="498.08" r="3.58" fill="#d19765"/><circle cx="905.74" cy="495.78" r="2.03" fill="#ded0b8"/><circle cx="898.45" cy="490.2" r="4.67" fill="#d19765"/><circle cx="907.48" cy="503.3" r="4.42" fill="#a77d5a"/><circle cx="917.89" cy="500.57" r="4.01" fill="#ded0b8"/><circle cx="896.65" cy="501.16" r="2.57" fill="#d19765"/><circle cx="916.17" cy="487.51" r="5.5" fill="#a77d5a"/><circle cx="910.02" cy="491.47" r="3.28" fill="#ded0b8"/><circle cx="893.63" cy="484.78" r="5.23" fill="#dcae86"/><circle cx="903.7" cy="503.75" r="2.56" fill="#a77d5a"/><circle cx="895.87" cy="495.61" r="3.24" fill="#a77d5a"/><circle cx="902.9" cy="504.29" r="5.57" fill="#dcae86"/><circle cx="900.92" cy="501.63" r="2.41" fill="#dcae86"/><circle cx="900.61" cy="499.57" r="1.96" fill="#ded0b8"/><line x1="902.8" y1="497.2" x2="881.22" y2="486.31" stroke="#5c3e28" stroke-width="0.69" stroke-opacity="0.55" stroke-linecap="round"/><line x1="902.8" y1="497.2" x2="885.41" y2="482.15" stroke="#5c3e28" stroke-width="0.69" stroke-opacity="0.55" stroke-linecap="round"/><line x1="902.8" y1="497.2" x2="895.72" y2="477.36" stroke="#5c3e28" stroke-width="0.69" stroke-opacity="0.55" stroke-linecap="round"/><line x1="902.8" y1="497.2" x2="886.25" y2="481.53" stroke="#5c3e28" stroke-width="0.69" stroke-opacity="0.55" stroke-linecap="round"/><line x1="902.8" y1="497.2" x2="902.38" y2="476.54" stroke="#5c3e28" stroke-width="0.69" stroke-opacity="0.55" stroke-linecap="round"/><line x1="902.8" y1="497.2" x2="913.53" y2="478.48" stroke="#5c3e28" stroke-width="0.69" stroke-opacity="0.55" stroke-linecap="round"/><line x1="902.8" y1="497.2" x2="891.98" y2="478.51" stroke="#5c3e28" stroke-width="0.69" stroke-opacity="0.55" stroke-linecap="round"/><rect x="592.02" y="526.52" width="13.57" height="63.6" rx="6.78" fill="#a77d5a"/><rect x="1000.02" y="526.52" width="13.57" height="63.6" rx="6.78" fill="#a77d5a"/><circle cx="593.72" cy="512.37" r="6.37" fill="#a77d5a"/><circle cx="581.26" cy="511.16" r="4.21" fill="#a77d5a"/><circle cx="604.62" cy="535.42" r="4.4" fill="#dcae86"/><circle cx="598.88" cy="517.32" r="5.12" fill="#dcae86"/><circle cx="614.74" cy="513.91" r="6.32" fill="#ded0b8"/><circle cx="592.76" cy="507.4" r="3.63" fill="#a77d5a"/><circle cx="594.51" cy="521.68" r="3.9" fill="#dcae86"/><circle cx="602.47" cy="514.72" r="5.73" fill="#a77d5a"/><circle cx="592.43" cy="520.88" r="4.19" fill="#dcae86"/><circle cx="582.89" cy="516.35" r="4.51" fill="#ded0b8"/><circle cx="578.85" cy="529.7" r="2.47" fill="#dcae86"/><circle cx="589.78" cy="513.88" r="4.14" fill="#d19765"/><circle cx="579.63" cy="525.31" r="4.25" fill="#dcae86"/><circle cx="608.35" cy="524.35" r="3.58" fill="#a77d5a"/><line x1="598.8" y1="522.28" x2="569.74" y2="513.1" stroke="#5c3e28" stroke-width="0.85" stroke-opacity="0.55" stroke-linecap="round"/><line x1="598.8" y1="522.28" x2="593.86" y2="497.24" stroke="#5c3e28" stroke-width="0.85" stroke-opacity="0.55" stroke-linecap="round"/><line x1="598.8" y1="522.28" x2="573.91" y2="507.01" stroke="#5c3e28" stroke-width="0.85" stroke-opacity="0.55" stroke-linecap="round"/><line x1="598.8" y1="522.28" x2="571.61" y2="509.87" stroke="#5c3e28" stroke-width="0.85" stroke-opacity="0.55" stroke-linecap="round"/><line x1="598.8" y1="522.28" x2="573.65" y2="507.3" stroke="#5c3e28" stroke-width="0.85" stroke-opacity="0.55" stroke-linecap="round"/><line x1="598.8" y1="522.28" x2="600.62" y2="496.96" stroke="#5c3e28" stroke-width="0.85" stroke-opacity="0.55" stroke-linecap="round"/><line x1="598.8" y1="522.28" x2="581.41" y2="501.23" stroke="#5c3e28" stroke-width="0.85" stroke-opacity="0.55" stroke-linecap="round"/><circle cx="994.25" cy="511.36" r="6.77" fill="#a77d5a"/><circle cx="1011.38" cy="536.29" r="3.91" fill="#ded0b8"/><circle cx="1005.56" cy="513.46" r="3.33" fill="#a77d5a"/><circle cx="987.02" cy="527.77" r="6.83" fill="#dcae86"/><circle cx="1005.72" cy="518.99" r="2.57" fill="#d19765"/><circle cx="1011.35" cy="521.14" r="4.18" fill="#d19765"/><circle cx="986.2" cy="526.1" r="6.49" fill="#a77d5a"/><circle cx="1016.48" cy="520.74" r="2.89" fill="#dcae86"/><circle cx="1004.85" cy="523.78" r="5.56" fill="#a77d5a"/><circle cx="1012.96" cy="513.87" r="5.78" fill="#a77d5a"/><circle cx="1009.86" cy="521.95" r="5.64" fill="#a77d5a"/><circle cx="1026.5" cy="516.33" r="2.47" fill="#ded0b8"/><circle cx="991.62" cy="534.01" r="5.19" fill="#ded0b8"/><circle cx="987.98" cy="528.21" r="5.97" fill="#dcae86"/><circle cx="1012.54" cy="518.88" r="2.78" fill="#dcae86"/><line x1="1006.8" y1="522.28" x2="1026.15" y2="502.4" stroke="#5c3e28" stroke-width="0.85" stroke-opacity="0.55" stroke-linecap="round"/><line x1="1006.8" y1="522.28" x2="1029.92" y2="505.27" stroke="#5c3e28" stroke-width="0.85" stroke-opacity="0.55" stroke-linecap="round"/><line x1="1006.8" y1="522.28" x2="995.71" y2="498.58" stroke="#5c3e28" stroke-width="0.85" stroke-opacity="0.55" stroke-linecap="round"/><line x1="1006.8" y1="522.28" x2="1034.54" y2="510.71" stroke="#5c3e28" stroke-width="0.85" stroke-opacity="0.55" stroke-linecap="round"/><line x1="1006.8" y1="522.28" x2="1034.53" y2="510.7" stroke="#5c3e28" stroke-width="0.85" stroke-opacity="0.55" stroke-linecap="round"/><line x1="1006.8" y1="522.28" x2="980.66" y2="508.47" stroke="#5c3e28" stroke-width="0.85" stroke-opacity="0.55" stroke-linecap="round"/><line x1="1006.8" y1="522.28" x2="978.88" y2="511.01" stroke="#5c3e28" stroke-width="0.85" stroke-opacity="0.55" stroke-linecap="round"/><rect x="485.71" y="592.9" width="18.18" height="85.2" rx="9.09" fill="#a77d5a"/><rect x="1101.71" y="592.9" width="18.18" height="85.2" rx="9.09" fill="#a77d5a"/><circle cx="497.6" cy="589.43" r="4.96" fill="#d19765"/><circle cx="512.7" cy="581.14" r="6.2" fill="#d19765"/><circle cx="494.08" cy="580.63" r="2.95" fill="#d19765"/><circle cx="481.5" cy="582.15" r="3.95" fill="#d19765"/><circle cx="506.92" cy="585.08" r="2.96" fill="#d19765"/><circle cx="499.46" cy="576.08" r="7.35" fill="#dcae86"/><circle cx="487.84" cy="582.19" r="6.47" fill="#d19765"/><circle cx="470.78" cy="593.52" r="4.84" fill="#a77d5a"/><circle cx="475.11" cy="585.99" r="4.75" fill="#ded0b8"/><circle cx="502.24" cy="582.23" r="6.43" fill="#ded0b8"/><circle cx="495.07" cy="592.37" r="3.61" fill="#ded0b8"/><circle cx="499.29" cy="594.09" r="4.46" fill="#a77d5a"/><circle cx="482.49" cy="599.24" r="4.56" fill="#ded0b8"/><circle cx="497.18" cy="582.03" r="6.28" fill="#a77d5a"/><circle cx="485.03" cy="586.93" r="5.18" fill="#d19765"/><circle cx="518.58" cy="595.97" r="3.2" fill="#d19765"/><line x1="494.8" y1="587.22" x2="494.35" y2="557.17" stroke="#5c3e28" stroke-width="1" stroke-opacity="0.55" stroke-linecap="round"/><line x1="494.8" y1="587.22" x2="508.65" y2="559.36" stroke="#5c3e28" stroke-width="1" stroke-opacity="0.55" stroke-linecap="round"/><line x1="494.8" y1="587.22" x2="492.93" y2="557.2" stroke="#5c3e28" stroke-width="1" stroke-opacity="0.55" stroke-linecap="round"/><line x1="494.8" y1="587.22" x2="527.99" y2="574.01" stroke="#5c3e28" stroke-width="1" stroke-opacity="0.55" stroke-linecap="round"/><line x1="494.8" y1="587.22" x2="513.1" y2="561.11" stroke="#5c3e28" stroke-width="1" stroke-opacity="0.55" stroke-linecap="round"/><line x1="494.8" y1="587.22" x2="495.22" y2="557.17" stroke="#5c3e28" stroke-width="1" stroke-opacity="0.55" stroke-linecap="round"/><line x1="494.8" y1="587.22" x2="481.37" y2="559.22" stroke="#5c3e28" stroke-width="1" stroke-opacity="0.55" stroke-linecap="round"/><circle cx="1112.19" cy="577.36" r="3.34" fill="#d19765"/><circle cx="1113.72" cy="596.21" r="6.08" fill="#d19765"/><circle cx="1098.4" cy="581.41" r="7.49" fill="#a77d5a"/><circle cx="1127.87" cy="577.9" r="4.49" fill="#dcae86"/><circle cx="1102.54" cy="589.2" r="7.16" fill="#ded0b8"/><circle cx="1102.62" cy="580.94" r="3.99" fill="#dcae86"/><circle cx="1104.72" cy="592.79" r="3.07" fill="#d19765"/><circle cx="1126.68" cy="587.25" r="8.07" fill="#ded0b8"/><circle cx="1118.16" cy="601.14" r="8.14" fill="#d19765"/><circle cx="1105.2" cy="588.37" r="6.28" fill="#ded0b8"/><circle cx="1098.97" cy="593.93" r="8.12" fill="#dcae86"/><circle cx="1098.93" cy="595.19" r="4.19" fill="#a77d5a"/><circle cx="1105.85" cy="597.66" r="8.09" fill="#a77d5a"/><circle cx="1129.95" cy="599.89" r="6.58" fill="#ded0b8"/><circle cx="1110.55" cy="568.52" r="6.81" fill="#d19765"/><line x1="1110.8" y1="587.22" x2="1080.91" y2="569.56" stroke="#5c3e28" stroke-width="1" stroke-opacity="0.55" stroke-linecap="round"/><line x1="1110.8" y1="587.22" x2="1113.95" y2="557.27" stroke="#5c3e28" stroke-width="1" stroke-opacity="0.55" stroke-linecap="round"/><line x1="1110.8" y1="587.22" x2="1077.86" y2="573.61" stroke="#5c3e28" stroke-width="1" stroke-opacity="0.55" stroke-linecap="round"/><line x1="1110.8" y1="587.22" x2="1084.21" y2="566.35" stroke="#5c3e28" stroke-width="1" stroke-opacity="0.55" stroke-linecap="round"/><line x1="1110.8" y1="587.22" x2="1140.63" y2="569.49" stroke="#5c3e28" stroke-width="1" stroke-opacity="0.55" stroke-linecap="round"/><line x1="1110.8" y1="587.22" x2="1134.21" y2="563.97" stroke="#5c3e28" stroke-width="1" stroke-opacity="0.55" stroke-linecap="round"/><line x1="1110.8" y1="587.22" x2="1130.24" y2="561.66" stroke="#5c3e28" stroke-width="1" stroke-opacity="0.55" stroke-linecap="round"/><rect x="379.41" y="685.24" width="22.78" height="106.8" rx="11.39" fill="#a77d5a"/><rect x="1203.41" y="685.24" width="22.78" height="106.8" rx="11.39" fill="#a77d5a"/><circle cx="386.34" cy="679.88" r="4.83" fill="#dcae86"/><circle cx="387.33" cy="689.37" r="7.05" fill="#dcae86"/><circle cx="404.5" cy="691.46" r="6.27" fill="#dcae86"/><circle cx="394.77" cy="680.3" r="5.99" fill="#ded0b8"/><circle cx="368.87" cy="682.1" r="4.5" fill="#a77d5a"/><circle cx="379.43" cy="687.55" r="4.27" fill="#ded0b8"/><circle cx="385.04" cy="673.11" r="7.36" fill="#dcae86"/><circle cx="397.06" cy="661.79" r="8.67" fill="#ded0b8"/><circle cx="387.31" cy="666.81" r="7.32" fill="#d19765"/><circle cx="406.79" cy="675.36" r="6.18" fill="#ded0b8"/><circle cx="405.39" cy="669.75" r="4.23" fill="#ded0b8"/><circle cx="405.72" cy="697.97" r="7.65" fill="#a77d5a"/><circle cx="373.92" cy="665.84" r="8.17" fill="#ded0b8"/><circle cx="389.88" cy="674.88" r="7.21" fill="#dcae86"/><circle cx="397.73" cy="683.7" r="8.17" fill="#dcae86"/><line x1="390.8" y1="678.12" x2="425.66" y2="658.02" stroke="#5c3e28" stroke-width="1.16" stroke-opacity="0.55" stroke-linecap="round"/><line x1="390.8" y1="678.12" x2="424.34" y2="656.59" stroke="#5c3e28" stroke-width="1.16" stroke-opacity="0.55" stroke-linecap="round"/><line x1="390.8" y1="678.12" x2="408.21" y2="646.38" stroke="#5c3e28" stroke-width="1.16" stroke-opacity="0.55" stroke-linecap="round"/><line x1="390.8" y1="678.12" x2="406.61" y2="645.83" stroke="#5c3e28" stroke-width="1.16" stroke-opacity="0.55" stroke-linecap="round"/><line x1="390.8" y1="678.12" x2="419.03" y2="652.03" stroke="#5c3e28" stroke-width="1.16" stroke-opacity="0.55" stroke-linecap="round"/><line x1="390.8" y1="678.12" x2="407.92" y2="646.27" stroke="#5c3e28" stroke-width="1.16" stroke-opacity="0.55" stroke-linecap="round"/><line x1="390.8" y1="678.12" x2="400.88" y2="644.34" stroke="#5c3e28" stroke-width="1.16" stroke-opacity="0.55" stroke-linecap="round"/><circle cx="1224.82" cy="677.49" r="6.98" fill="#a77d5a"/><circle cx="1220.56" cy="674.52" r="3.63" fill="#ded0b8"/><circle cx="1189.86" cy="673.83" r="6.37" fill="#dcae86"/><circle cx="1227.18" cy="658.84" r="3.7" fill="#a77d5a"/><circle cx="1227.78" cy="658.12" r="7.75" fill="#a77d5a"/><circle cx="1247.24" cy="675.51" r="8.41" fill="#d19765"/><circle cx="1209.94" cy="675.04" r="5.39" fill="#a77d5a"/><circle cx="1206.27" cy="658.69" r="8.47" fill="#ded0b8"/><circle cx="1224.37" cy="697.73" r="9.41" fill="#ded0b8"/><circle cx="1212.03" cy="680.97" r="9.19" fill="#a77d5a"/><circle cx="1190.6" cy="680.2" r="4.52" fill="#d19765"/><circle cx="1237.08" cy="689.08" r="7.53" fill="#d19765"/><circle cx="1219.05" cy="688.06" r="6.49" fill="#ded0b8"/><circle cx="1223.99" cy="682.36" r="7.87" fill="#d19765"/><line x1="1214.8" y1="678.12" x2="1179.9" y2="658.07" stroke="#5c3e28" stroke-width="1.16" stroke-opacity="0.55" stroke-linecap="round"/><line x1="1214.8" y1="678.12" x2="1252.3" y2="661.45" stroke="#5c3e28" stroke-width="1.16" stroke-opacity="0.55" stroke-linecap="round"/><line x1="1214.8" y1="678.12" x2="1223.68" y2="644.12" stroke="#5c3e28" stroke-width="1.16" stroke-opacity="0.55" stroke-linecap="round"/><line x1="1214.8" y1="678.12" x2="1233.44" y2="646.84" stroke="#5c3e28" stroke-width="1.16" stroke-opacity="0.55" stroke-linecap="round"/><line x1="1214.8" y1="678.12" x2="1234.37" y2="647.22" stroke="#5c3e28" stroke-width="1.16" stroke-opacity="0.55" stroke-linecap="round"/><line x1="1214.8" y1="678.12" x2="1229.21" y2="645.4" stroke="#5c3e28" stroke-width="1.16" stroke-opacity="0.55" stroke-linecap="round"/><line x1="1214.8" y1="678.12" x2="1209.95" y2="643.59" stroke="#5c3e28" stroke-width="1.16" stroke-opacity="0.55" stroke-linecap="round"/><rect x="273.1" y="798.56" width="27.39" height="128.4" rx="13.7" fill="#a77d5a"/><rect x="1305.1" y="798.56" width="27.39" height="128.4" rx="13.7" fill="#a77d5a"/><circle cx="291.03" cy="803.14" r="9.38" fill="#dcae86"/><circle cx="291.84" cy="770.7" r="6.28" fill="#dcae86"/><circle cx="291.57" cy="797.42" r="3.79" fill="#dcae86"/><circle cx="289.66" cy="811.74" r="3.88" fill="#ded0b8"/><circle cx="265.34" cy="794.68" r="8.28" fill="#dcae86"/><circle cx="308.59" cy="782.53" r="8.72" fill="#ded0b8"/><circle cx="288.26" cy="775.93" r="7.92" fill="#a77d5a"/><circle cx="282.69" cy="787.15" r="5.44" fill="#ded0b8"/><circle cx="304.06" cy="798.32" r="9.03" fill="#a77d5a"/><circle cx="283.83" cy="797.68" r="7.24" fill="#dcae86"/><circle cx="305.19" cy="795.01" r="5.02" fill="#dcae86"/><circle cx="299.89" cy="782.8" r="5.5" fill="#d19765"/><circle cx="281.26" cy="800.9" r="4.28" fill="#ded0b8"/><circle cx="284.18" cy="813.85" r="6.45" fill="#a77d5a"/><line x1="286.8" y1="790" x2="331.77" y2="775.21" stroke="#5c3e28" stroke-width="1.32" stroke-opacity="0.55" stroke-linecap="round"/><line x1="286.8" y1="790" x2="315.35" y2="758.1" stroke="#5c3e28" stroke-width="1.32" stroke-opacity="0.55" stroke-linecap="round"/><line x1="286.8" y1="790" x2="269.22" y2="753.23" stroke="#5c3e28" stroke-width="1.32" stroke-opacity="0.55" stroke-linecap="round"/><line x1="286.8" y1="790" x2="311.98" y2="756.27" stroke="#5c3e28" stroke-width="1.32" stroke-opacity="0.55" stroke-linecap="round"/><line x1="286.8" y1="790" x2="254.26" y2="760.74" stroke="#5c3e28" stroke-width="1.32" stroke-opacity="0.55" stroke-linecap="round"/><line x1="286.8" y1="790" x2="285.67" y2="750.55" stroke="#5c3e28" stroke-width="1.32" stroke-opacity="0.55" stroke-linecap="round"/><line x1="286.8" y1="790" x2="289.41" y2="750.6" stroke="#5c3e28" stroke-width="1.32" stroke-opacity="0.55" stroke-linecap="round"/><circle cx="1289.62" cy="786.96" r="9.52" fill="#dcae86"/><circle cx="1312.5" cy="793.96" r="10.21" fill="#d19765"/><circle cx="1302.06" cy="813" r="8.26" fill="#d19765"/><circle cx="1287.34" cy="777.69" r="7.29" fill="#dcae86"/><circle cx="1323.8" cy="799.11" r="7.52" fill="#dcae86"/><circle cx="1319.26" cy="784.59" r="7.43" fill="#a77d5a"/><circle cx="1289.32" cy="796.99" r="4.41" fill="#d19765"/><circle cx="1317.21" cy="794.64" r="6.25" fill="#dcae86"/><circle cx="1344.82" cy="780.23" r="4.86" fill="#ded0b8"/><circle cx="1295.75" cy="781.89" r="7.47" fill="#dcae86"/><circle cx="1324.58" cy="787.67" r="6.03" fill="#d19765"/><circle cx="1320.25" cy="795.59" r="4.81" fill="#a77d5a"/><circle cx="1324.34" cy="793.34" r="4.31" fill="#dcae86"/><circle cx="1299.96" cy="806.04" r="4.56" fill="#d19765"/><circle cx="1324.74" cy="771.88" r="9.01" fill="#d19765"/><circle cx="1340.79" cy="771.89" r="3.97" fill="#ded0b8"/><line x1="1318.8" y1="790" x2="1364.13" y2="775.96" stroke="#5c3e28" stroke-width="1.32" stroke-opacity="0.55" stroke-linecap="round"/><line x1="1318.8" y1="790" x2="1354.19" y2="763.02" stroke="#5c3e28" stroke-width="1.32" stroke-opacity="0.55" stroke-linecap="round"/><line x1="1318.8" y1="790" x2="1336.84" y2="753.37" stroke="#5c3e28" stroke-width="1.32" stroke-opacity="0.55" stroke-linecap="round"/><line x1="1318.8" y1="790" x2="1357.66" y2="766.39" stroke="#5c3e28" stroke-width="1.32" stroke-opacity="0.55" stroke-linecap="round"/><line x1="1318.8" y1="790" x2="1301.73" y2="753.07" stroke="#5c3e28" stroke-width="1.32" stroke-opacity="0.55" stroke-linecap="round"/><line x1="1318.8" y1="790" x2="1286.48" y2="760.58" stroke="#5c3e28" stroke-width="1.32" stroke-opacity="0.55" stroke-linecap="round"/><line x1="1318.8" y1="790" x2="1288.96" y2="758.89" stroke="#5c3e28" stroke-width="1.32" stroke-opacity="0.55" stroke-linecap="round"/><rect x="166.8" y="930" width="32" height="150" rx="16" fill="#a77d5a"/><rect x="1406.8" y="930" width="32" height="150" rx="16" fill="#a77d5a"/><circle cx="173.34" cy="912.76" r="6.27" fill="#ded0b8"/><circle cx="204.08" cy="897.37" r="9.42" fill="#dcae86"/><circle cx="223.59" cy="919.33" r="7.51" fill="#a77d5a"/><circle cx="173.33" cy="921.3" r="4.19" fill="#dcae86"/><circle cx="192.8" cy="894.55" r="5.44" fill="#a77d5a"/><circle cx="174.91" cy="893.96" r="10.81" fill="#a77d5a"/><circle cx="202.17" cy="932.03" r="10.64" fill="#d19765"/><circle cx="173.77" cy="916.47" r="11.34" fill="#dcae86"/><circle cx="201.12" cy="913.38" r="6.46" fill="#dcae86"/><circle cx="188.25" cy="913.27" r="9.08" fill="#ded0b8"/><circle cx="202.82" cy="908.76" r="4.61" fill="#a77d5a"/><circle cx="179.89" cy="908.53" r="11.29" fill="#a77d5a"/><circle cx="167.15" cy="913.55" r="5.28" fill="#dcae86"/><circle cx="182.83" cy="923.14" r="7.81" fill="#a77d5a"/><circle cx="192.56" cy="923.85" r="9.69" fill="#dcae86"/><line x1="182.8" y1="920" x2="232.01" y2="901.36" stroke="#5c3e28" stroke-width="1.47" stroke-opacity="0.55" stroke-linecap="round"/><line x1="182.8" y1="920" x2="137.69" y2="895.44" stroke="#5c3e28" stroke-width="1.47" stroke-opacity="0.55" stroke-linecap="round"/><line x1="182.8" y1="920" x2="217.61" y2="886.12" stroke="#5c3e28" stroke-width="1.47" stroke-opacity="0.55" stroke-linecap="round"/><line x1="182.8" y1="920" x2="212.12" y2="882.83" stroke="#5c3e28" stroke-width="1.47" stroke-opacity="0.55" stroke-linecap="round"/><line x1="182.8" y1="920" x2="217.43" y2="885.99" stroke="#5c3e28" stroke-width="1.47" stroke-opacity="0.55" stroke-linecap="round"/><line x1="182.8" y1="920" x2="229.85" y2="897.98" stroke="#5c3e28" stroke-width="1.47" stroke-opacity="0.55" stroke-linecap="round"/><line x1="182.8" y1="920" x2="206.91" y2="880.43" stroke="#5c3e28" stroke-width="1.47" stroke-opacity="0.55" stroke-linecap="round"/><circle cx="1417.35" cy="946.53" r="5.5" fill="#dcae86"/><circle cx="1418.97" cy="904.32" r="6.31" fill="#a77d5a"/><circle cx="1389.37" cy="937.2" r="11.87" fill="#dcae86"/><circle cx="1448.44" cy="914.77" r="11.17" fill="#ded0b8"/><circle cx="1413.02" cy="923.88" r="6.93" fill="#a77d5a"/><circle cx="1421.63" cy="907.71" r="11.14" fill="#a77d5a"/><circle cx="1413.27" cy="926.45" r="7.1" fill="#d19765"/><circle cx="1397.51" cy="931.02" r="6.63" fill="#a77d5a"/><circle cx="1421.04" cy="898.67" r="8.24" fill="#a77d5a"/><circle cx="1454.48" cy="908.28" r="10.32" fill="#ded0b8"/><circle cx="1421.26" cy="926.3" r="8.82" fill="#dcae86"/><circle cx="1445.7" cy="923.78" r="8.39" fill="#ded0b8"/><circle cx="1425.42" cy="925.47" r="5.05" fill="#ded0b8"/><circle cx="1417.16" cy="908.29" r="7.09" fill="#ded0b8"/><line x1="1422.8" y1="920" x2="1431.42" y2="876.4" stroke="#5c3e28" stroke-width="1.47" stroke-opacity="0.55" stroke-linecap="round"/><line x1="1422.8" y1="920" x2="1389.13" y2="885.36" stroke="#5c3e28" stroke-width="1.47" stroke-opacity="0.55" stroke-linecap="round"/><line x1="1422.8" y1="920" x2="1385.22" y2="888.14" stroke="#5c3e28" stroke-width="1.47" stroke-opacity="0.55" stroke-linecap="round"/><line x1="1422.8" y1="920" x2="1429.7" y2="876.2" stroke="#5c3e28" stroke-width="1.47" stroke-opacity="0.55" stroke-linecap="round"/><line x1="1422.8" y1="920" x2="1473.58" y2="904.41" stroke="#5c3e28" stroke-width="1.47" stroke-opacity="0.55" stroke-linecap="round"/><line x1="1422.8" y1="920" x2="1418.49" y2="875.98" stroke="#5c3e28" stroke-width="1.47" stroke-opacity="0.55" stroke-linecap="round"/><line x1="1422.8" y1="920" x2="1470.21" y2="898.49" stroke="#5c3e28" stroke-width="1.47" stroke-opacity="0.55" stroke-linecap="round"/><rect x="652.8" y="302" width="25.5" height="260" rx="3.83" fill="#5c3e28"/><rect x="927.3" y="302" width="25.5" height="260" rx="3.83" fill="#5c3e28"/><rect x="642.6" y="302" width="320.4" height="22.95" rx="3.83" fill="#5c3e28"/><rect x="678.3" y="324.95" width="249" height="237.05" rx="0" fill="#ded0b8"/><line x1="678.3" y1="354" x2="927.3" y2="354" stroke="#a77d5a" stroke-width="3" stroke-opacity="0.42" stroke-linecap="round"/><line x1="678.3" y1="406" x2="927.3" y2="406" stroke="#a77d5a" stroke-width="3" stroke-opacity="0.42" stroke-linecap="round"/><line x1="678.3" y1="458" x2="927.3" y2="458" stroke="#a77d5a" stroke-width="3" stroke-opacity="0.42" stroke-linecap="round"/><line x1="678.3" y1="510" x2="927.3" y2="510" stroke="#a77d5a" stroke-width="3" stroke-opacity="0.42" stroke-linecap="round"/><rect x="0" y="0" width="1600" height="1200" rx="0" fill="none" stroke="#412f22" stroke-opacity="0.10" stroke-width="4"/></svg>