<svg xmlns="http://www.w3.org/2000/svg" viewBox="0 0 1600 1200" width="1600" height="1200" role="img"><defs><linearGradient id="gi14jny" x1="0" y1="0" x2="0" y2="1"><stop offset="0" stop-color="#f9ede1"/><stop offset="1" stop-color="#f5e1d1"/></linearGradient></defs><rect x="0" y="0" width="1600" height="1200" rx="0" fill="url(#gi14jny)"/><circle cx="452.35" cy="313.02" r="224.44" fill="#f4ebde" opacity="0.0"/><rect x="96" y="112.87" width="1408" height="849.13" rx="0" fill="#ddc6a2" opacity="0.42"/><line x1="96" y1="338.38" x2="1504" y2="338.38" stroke="#46201a" stroke-width="2" stroke-opacity="0.12" stroke-linecap="round"/><rect x="0" y="962" width="1600" height="238" rx="0" fill="#e8cebc"/><line x1="0" y1="962" x2="1600" y2="962" stroke="#46201a" stroke-width="2" stroke-opacity="0.26" stroke-linecap="round"/><ellipse cx="800" cy="980" rx="620" ry="22" fill="#46201a" opacity="0.10"/><path d="M 342.15 962 L 342.15 856.66 L 357.89 856.66 L 357.89 826.94 L 357.89 721.6 L 372.36 721.6 L 372.36 691.89 L 372.36 586.55 L 385.31 586.55 L 385.31 556.83 L 385.31 451.49 L 396.63 451.49 L 396.63 421.78 L 396.63 316.43 L 406.29 316.43 L 406.29 286.72 L 440.53 212.44 L 474.78 286.72 L 474.78 316.43 L 484.43 316.43 L 484.43 421.78 L 484.43 451.49 L 495.75 451.49 L 495.75 556.83 L 495.75 586.55 L 508.71 586.55 L 508.71 691.89 L 508.71 721.6 L 523.17 721.6 L 523.17 826.94 L 523.17 856.66 L 538.91 856.66 L 538.91 962 Z" fill="#6a2622"/><path d="M 352.15 962 L 352.15 859.46 L 366.29 859.46 L 366.29 830.54 L 366.29 728.01 L 379.29 728.01 L 379.29 699.09 L 379.29 596.55 L 390.92 596.55 L 390.92 567.63 L 390.92 465.1 L 401.09 465.1 L 401.09 436.18 L 401.09 333.64 L 409.77 333.64 L 409.77 304.72 L 440.53 232.42 L 471.29 304.72 L 471.29 333.64 L 479.97 333.64 L 479.97 436.18 L 479.97 465.1 L 490.14 465.1 L 490.14 567.63 L 490.14 596.55 L 501.78 596.55 L 501.78 699.09 L 501.78 728.01 L 514.77 728.01 L 514.77 830.54 L 514.77 859.46 L 528.91 859.46 L 528.91 962 Z" fill="#af6446"/><circle cx="440.53" cy="270.72" r="15" fill="#cfab56"/><path d="M 1020.74 962 L 1020.74 856.66 L 1036.48 856.66 L 1036.48 826.94 L 1036.48 721.6 L 1050.95 721.6 L 1050.95 691.89 L 1050.95 586.55 L 1063.9 586.55 L 1063.9 556.83 L 1063.9 451.49 L 1075.22 451.49 L 1075.22 421.78 L 1075.22 316.43 L 1084.88 316.43 L 1084.88 286.72 L 1119.12 212.44 L 1153.36 286.72 L 1153.36 316.43 L 1163.02 316.43 L 1163.02 421.78 L 1163.02 451.49 L 1174.34 451.49 L 1174.34 556.83 L 1174.34 586.55 L 1187.3 586.55 L 1187.3 691.89 L 1187.3 721.6 L 1201.76 721.6 L 1201.76 826.94 L 1201.76 856.66 L 1217.5 856.66 L 1217.5 962 Z" fill="#6a2622"/><path d="M 1030.74 962 L 1030.74 859.46 L 1044.88 859.46 L 1044.88 830.54 L 1044.88 728.01 L 1057.88 728.01 L 1057.88 699.09 L 1057.88 596.55 L 1069.51 596.55 L 1069.51 567.63 L 1069.51 465.1 L 1079.68 465.1 L 1079.68 436.18 L 1079.68 333.64 L 1088.36 333.64 L 1088.36 304.72 L 1119.12 232.42 L 1149.88 304.72 L 1149.88 333.64 L 1158.56 333.64 L 1158.56 436.18 L 1158.56 465.1 L 1168.73 465.1 L 1168.73 567.63 L 1168.73 596.55 L 1180.37 596.55 L 1180.37 699.09 L 1180.37 728.01 L 1193.36 728.01 L 1193.36 830.54 L 1193.36 859.46 L 1207.5 859.46 L 1207.5 962 Z" fill="#af6446"/><circle cx="1119.12" cy="270.72" r="15" fill="#cfab56"/><rect x="440.53" y="678.38" width="678.59" height="16" rx="8" fill="#cfab56"/><path d="M 440.53 274.72 Q 474.62 299.11 512.42 281.01 Q 478.33 256.63 440.53 274.72 Z" fill="#6a2622"/><path d="M 440.53 274.72 Q 448.96 315.77 488.99 328.19 Q 480.56 287.14 440.53 274.72 Z" fill="#af6446"/><path d="M 440.53 274.72 Q 419.66 311.06 441.43 346.88 Q 462.3 310.53 440.53 274.72 Z" fill="#6a2622"/><path d="M 440.53 274.72 Q 400.24 286.25 390.9 327.1 Q 431.19 315.58 440.53 274.72 Z" fill="#af6446"/><path d="M 440.53 274.72 Q 404.72 252.95 368.38 273.81 Q 404.19 295.59 440.53 274.72 Z" fill="#6a2622"/><path d="M 440.53 274.72 Q 431.8 233.73 391.68 221.61 Q 400.42 262.6 440.53 274.72 Z" fill="#af6446"/><path d="M 440.53 274.72 Q 459.53 237.37 435.97 202.71 Q 416.98 240.06 440.53 274.72 Z" fill="#6a2622"/><path d="M 440.53 274.72 Q 481.16 264.45 491.76 223.9 Q 451.13 234.18 440.53 274.72 Z" fill="#af6446"/><circle cx="440.53" cy="274.72" r="21.32" fill="#cfab56"/><circle cx="440.53" cy="274.72" r="9.84" fill="#ddc6a2"/><circle cx="518.57" cy="223.36" r="10.33" fill="#cfab56"/><circle cx="342.68" cy="271.85" r="10.1" fill="#cfab56"/><circle cx="337.54" cy="296.51" r="9.34" fill="#cfab56"/><circle cx="355.6" cy="241.35" r="9.14" fill="#cfab56"/><path d="M 1119.12 274.72 Q 1149.34 289.72 1177.05 270.48 Q 1146.83 255.49 1119.12 274.72 Z" fill="#6a2622"/><path d="M 1119.12 274.72 Q 1126.89 307.55 1159.39 316.57 Q 1151.62 283.75 1119.12 274.72 Z" fill="#af6446"/><path d="M 1119.12 274.72 Q 1100.46 302.82 1116.08 332.72 Q 1134.74 304.62 1119.12 274.72 Z" fill="#6a2622"/><path d="M 1119.12 274.72 Q 1085.76 279.71 1074.03 311.33 Q 1107.39 306.35 1119.12 274.72 Z" fill="#af6446"/><path d="M 1119.12 274.72 Q 1089.92 257.84 1061.04 275.27 Q 1090.24 292.16 1119.12 274.72 Z" fill="#6a2622"/><path d="M 1119.12 274.72 Q 1107.84 242.93 1074.55 237.48 Q 1085.83 269.27 1119.12 274.72 Z" fill="#af6446"/><path d="M 1119.12 274.72 Q 1139.15 247.58 1125.05 216.94 Q 1105.01 244.08 1119.12 274.72 Z" fill="#6a2622"/><path d="M 1119.12 274.72 Q 1151.73 266.08 1159.88 233.35 Q 1127.28 241.99 1119.12 274.72 Z" fill="#af6446"/><circle cx="1119.12" cy="274.72" r="17.16" fill="#cfab56"/><circle cx="1119.12" cy="274.72" r="7.92" fill="#ddc6a2"/><circle cx="1187.75" cy="307.09" r="6.19" fill="#cfab56"/><circle cx="1150.04" cy="231.7" r="8.12" fill="#cfab56"/><circle cx="1204.47" cy="267.79" r="7.75" fill="#cfab56"/><circle cx="1174.24" cy="301.07" r="7.2" fill="#cfab56"/><path d="M 779.83 140.2 Q 806.78 152.53 830.59 134.87 Q 803.63 122.54 779.83 140.2 Z" fill="#6a2622"/><path d="M 779.83 140.2 Q 789.04 168.37 818.16 173.9 Q 808.95 145.72 779.83 140.2 Z" fill="#af6446"/><path d="M 779.83 140.2 Q 767.47 167.15 785.12 190.96 Q 797.47 164.02 779.83 140.2 Z" fill="#6a2622"/><path d="M 779.83 140.2 Q 751.21 147.94 744.19 176.74 Q 772.8 169 779.83 140.2 Z" fill="#af6446"/><path d="M 779.83 140.2 Q 755.95 122.63 729.05 135.06 Q 752.92 152.63 779.83 140.2 Z" fill="#6a2622"/><path d="M 779.83 140.2 Q 771.8 111.66 742.93 104.93 Q 750.96 133.46 779.83 140.2 Z" fill="#af6446"/><path d="M 779.83 140.2 Q 795.67 115.15 781.37 89.18 Q 765.53 114.23 779.83 140.2 Z" fill="#6a2622"/><path d="M 779.83 140.2 Q 808.87 134.29 817.71 106 Q 788.66 111.9 779.83 140.2 Z" fill="#af6446"/><circle cx="779.83" cy="140.2" r="15.08" fill="#cfab56"/><circle cx="779.83" cy="140.2" r="6.96" fill="#ddc6a2"/><circle cx="722.9" cy="134.49" r="4.93" fill="#cfab56"/><circle cx="769.01" cy="192.51" r="7.68" fill="#cfab56"/><circle cx="829.9" cy="162.3" r="7.47" fill="#cfab56"/><circle cx="769.49" cy="185.12" r="8.57" fill="#cfab56"/><rect x="0" y="0" width="1600" height="1200" rx="0" fill="none" stroke="#46201a" stroke-opacity="0.10" stroke-width="4"/></svg>